<?xml version="1.0" standalone="no"?>
<!DOCTYPE svg PUBLIC "-//W3C//DTD SVG 20010904//EN"
 "http://www.w3.org/TR/2001/REC-SVG-20010904/DTD/svg10.dtd">
<svg version="1.0" xmlns="http://www.w3.org/2000/svg"
 width="297.000000pt" height="297.000000pt" viewBox="0 0 297.000000 297.000000"
 preserveAspectRatio="xMidYMid meet">
<metadata>
Created by potrace 1.11, written by Peter Selinger 2001-2013
</metadata>
<g transform="translate(0.000000,297.000000) scale(0.100000,-0.100000)"
fill="#000000" stroke="none">
<path d="M2455 2885 c-38 -32 -40 -33 -49 -15 -9 20 -31 27 -38 12 -1 -4 -97
-71 -213 -147 -115 -77 -212 -142 -215 -145 -3 -3 -24 -18 -47 -34 -75 -50
-163 -163 -163 -207 0 -6 -6 -25 -14 -42 -8 -18 -31 -79 -51 -137 -59 -168
-102 -247 -175 -321 -67 -68 -111 -88 -225 -104 -91 -13 -135 -28 -165 -56
-38 -37 -50 -66 -51 -127 0 -26 -1 -64 -1 -84 -2 -42 20 -91 36 -85 6 2 11 15
11 29 0 33 21 57 45 51 38 -10 27 -79 -16 -108 -14 -9 -22 -20 -19 -25 3 -6 0
-7 -8 -4 -8 3 -36 -8 -63 -24 -27 -17 -103 -62 -170 -101 -184 -108 -245 -178
-294 -337 -24 -79 -51 -152 -87 -239 -37 -89 -43 -102 -101 -203 -55 -94 -59
-118 -23 -124 20 -3 19 -5 -10 -50 -23 -35 -30 -55 -25 -73 7 -29 27 -25 68
13 44 40 42 19 -2 -29 -40 -45 -50 -74 -27 -82 16 -6 41 8 77 43 37 36 48 38
26 6 -17 -27 -12 -56 10 -56 8 0 33 27 57 59 40 57 69 82 47 42 -5 -11 -7 -22
-3 -24 17 -10 53 14 69 45 9 18 31 49 49 68 18 19 52 71 76 115 91 172 121
200 362 324 75 39 146 76 159 83 55 32 136 110 242 233 94 109 95 109 144 82
23 -12 60 -38 83 -57 55 -46 190 -211 269 -330 91 -137 120 -159 163 -128 30
23 28 74 -8 228 -11 47 -7 91 10 110 25 28 66 38 187 44 117 7 152 16 161 40
15 39 -69 85 -231 128 -64 16 -148 46 -187 65 -111 56 -248 149 -268 182 l-17
30 50 97 c28 53 66 117 83 142 95 133 153 255 168 352 14 92 24 121 55 157 13
16 24 38 24 51 0 12 5 22 11 22 19 0 40 29 42 60 1 16 7 30 12 30 21 1 105 71
105 88 0 11 17 26 46 40 25 12 53 36 62 52 9 16 29 35 44 41 36 15 62 45 54
64 -6 16 -14 16 -66 -3 -8 -3 9 20 38 51 28 31 52 63 52 71 0 20 -38 20 -64 1
-44 -34 -34 -11 24 55 39 44 60 76 56 85 -8 23 -26 18 -84 -20 -54 -37 -61
-36 -37 5 37 65 2 80 -60 25z"/>
</g>
</svg>
